<?xml version="1.0" encoding="UTF-8" standalone="no"?>
<!-- Created with Inkscape (http://www.inkscape.org/) -->

<svg
   xmlns:dc="http://purl.org/dc/elements/1.1/"
   xmlns:cc="http://creativecommons.org/ns#"
   xmlns:rdf="http://www.w3.org/1999/02/22-rdf-syntax-ns#"
   xmlns:svg="http://www.w3.org/2000/svg"
   xmlns="http://www.w3.org/2000/svg"
   xmlns:sodipodi="http://sodipodi.sourceforge.net/DTD/sodipodi-0.dtd"
   xmlns:inkscape="http://www.inkscape.org/namespaces/inkscape"
   id="svg2"
   version="1.1"
   inkscape:version="0.91 r13725"
   xml:space="preserve"
   width="400"
   height="400"
   viewBox="0 0 400 400"
   sodipodi:docname="steak-logo-centered.svg"><metadata
     id="metadata8"><rdf:RDF><cc:Work
         rdf:about=""><dc:format>image/svg+xml</dc:format><dc:type
           rdf:resource="http://purl.org/dc/dcmitype/StillImage" /><dc:title></dc:title></cc:Work></rdf:RDF></metadata><defs
     id="defs6"><clipPath
       clipPathUnits="userSpaceOnUse"
       id="clipPath22"><path
         d="M 342.52,934.504 C 202.52,684.5 340,513.711 332.09,355.27 324.102,194.988 1005.37,-21.9609 1943.18,198.5 c 811.55,190.77 1053.94,392.84 1048.21,566.23 -6.53,197.696 78.61,278.98 8.61,558.98 L 342.52,934.504"
         id="path24"
         inkscape:connector-curvature="0" /></clipPath><clipPath
       clipPathUnits="userSpaceOnUse"
       id="clipPath40"><path
         d="m 0,0 0,1816 3041,0 L 3041,0 0,0 Z"
         id="path42"
         inkscape:connector-curvature="0" /></clipPath><clipPath
       clipPathUnits="userSpaceOnUse"
       id="clipPath46"><path
         d="m 1855.01,1816.31 c -253.42,-0.38 -477.31,-44.44 -601.71,-102.6 -189.15,-88.42 -263.3,-460 -803.3,-690 C 48.1211,852.539 770.91,489.859 1943.18,765.422 3680,1173.71 2794.82,1572.79 2680,1633.72 c -250.5,132.91 -550.63,182.2 -818.5,182.59 l -6.49,0"
         id="path48"
         inkscape:connector-curvature="0" /></clipPath></defs><sodipodi:namedview
     pagecolor="#ffffff"
     bordercolor="#666666"
     borderopacity="1"
     objecttolerance="10"
     gridtolerance="10"
     guidetolerance="10"
     inkscape:pageopacity="0"
     inkscape:pageshadow="2"
     inkscape:window-width="1920"
     inkscape:window-height="1136"
     id="namedview4"
     showgrid="false"
     inkscape:zoom="1.2946534"
     inkscape:cx="86.427432"
     inkscape:cy="115.73518"
     inkscape:window-x="1920"
     inkscape:window-y="27"
     inkscape:window-maximized="1"
     inkscape:current-layer="g10" /><g
     inkscape:groupmode="layer"
     id="layer2"
     inkscape:label="Shadow"
     style="display:inline"
     transform="translate(0,172.96249)"><path
       inkscape:connector-curvature="0"
       id="path14"
       style="fill:#353637;fill-opacity:1;fill-rule:nonzero;stroke:none"
       d="m 130.41432,140.55615 c -99.364748,0 -148.854872,-36.72117 -103.603998,-50.295917 71.466377,-21.43987 75.753998,-50.02637 118.632878,-78.612617 41.52125,-27.681249 77.37,-37.57875 109.36,-37.57875 22.40375,0 42.9125,4.8525 62.1575,11.85125 47.1675,17.1525005 171.5175,82.900247 -76.72875,141.257614 -40.76375,9.58252 -77.87125,13.37842 -109.81763,13.37842" /></g><g
     inkscape:groupmode="layer"
     id="layer3"
     inkscape:label="SteakBody"
     style="display:inline"
     transform="translate(0,172.96249)"><path
       inkscape:connector-curvature="0"
       id="path16"
       style="fill:#963612;fill-opacity:1;fill-rule:nonzero;stroke:none"
       d="m 384.93195,-24.906134 c 8.75,35 -1.8925,45.1595 -1.07375,69.871497 0.71375,21.67475 -29.585,46.933501 -131.02875,70.779747 -117.225,27.55615 -202.384753,0.44 -201.386253,-19.596246 0.98875,-19.80513 -16.19625,-41.15375 1.30375,-72.404247" /><path
       inkscape:connector-curvature="0"
       id="path34"
       style="fill:#a75024;fill-opacity:1;fill-rule:nonzero;stroke:none"
       d="m 66.181947,12.593866 c 67.500003,-28.75 76.768753,-75.1975 100.413753,-86.25 32.08625,-15 117.08625,-22.5 178.33625,10 14.355,7.615 125,57.5000005 -92.1025,108.535997 C 106.2952,79.326113 15.94806,33.990233 66.181947,12.593866" /></g><g
     id="g10"
     inkscape:groupmode="layer"
     inkscape:label="SteakStripes"
     transform="matrix(1.25,0,0,-1.25,0,399.99999)"
     style="display:inline"><g
       id="g20"
       clip-path="url(#clipPath22)"
       transform="matrix(0.1,0,0,0.1,7.9455585,69.183907)"><path
         d="m 1399.49,1720.55 1535.95,-608.93 c 28.77,-11.41 61.33,2.67 72.74,31.43 11.4,28.77 -2.67,61.33 -31.44,72.74 l -1535.95,608.93 c -28.77,11.41 -61.33,-2.67 -72.73,-31.43 -11.41,-28.77 2.67,-61.33 31.43,-72.74"
         style="fill:#56210b;fill-opacity:1;fill-rule:nonzero;stroke:none"
         id="path26"
         inkscape:connector-curvature="0" /><path
         d="M 737.281,1146.1 1848.89,706.629 c 28.78,-11.379 61.33,2.723 72.71,31.5 11.37,28.781 -2.73,61.332 -31.51,72.711 L 778.48,1250.31 c -28.777,11.38 -61.328,-2.73 -72.707,-31.51 -11.375,-28.77 2.731,-61.32 31.508,-72.7"
         style="fill:#56210b;fill-opacity:1;fill-rule:nonzero;stroke:none"
         id="path28"
         inkscape:connector-curvature="0" /><path
         d="M 1050.13,1455.65 2488.09,889.582 c 28.79,-11.332 61.32,2.82 72.66,31.613 11.33,28.793 -2.82,61.325 -31.61,72.66 L 1091.18,1559.92 c -28.8,11.33 -61.33,-2.82 -72.66,-31.61 -11.34,-28.79 2.82,-61.33 31.61,-72.66"
         style="fill:#56210b;fill-opacity:1;fill-rule:nonzero;stroke:none"
         id="path30"
         inkscape:connector-curvature="0" /><path
         d="M 320.324,909.82 1072.22,603.961 c 28.66,-11.66 61.35,2.117 73.01,30.789 11.66,28.66 -2.12,61.352 -30.79,73.012 L 362.547,1013.62 c -28.664,11.66 -61.352,-2.12 -73.012,-30.788 -11.66,-28.664 2.125,-61.352 30.789,-73.012"
         style="fill:#56210b;fill-opacity:1;fill-rule:nonzero;stroke:none"
         id="path32"
         inkscape:connector-curvature="0" /></g><g
       clip-path="url(#clipPath46)"
       id="g44"
       transform="matrix(0.1,0,0,0.1,7.9455585,69.183907)"><path
         inkscape:connector-curvature="0"
         id="path50"
         style="fill:#56210b;fill-opacity:1;fill-rule:nonzero;stroke:none"
         d="m 1399.49,1720.55 1535.95,-608.93 c 28.77,-11.41 61.33,2.67 72.74,31.43 11.4,28.77 -2.67,61.33 -31.44,72.74 l -1535.95,608.93 c -28.77,11.41 -61.33,-2.67 -72.73,-31.43 -11.41,-28.77 2.67,-61.33 31.43,-72.74" /><path
         inkscape:connector-curvature="0"
         id="path52"
         style="fill:#56210b;fill-opacity:1;fill-rule:nonzero;stroke:none"
         d="M 737.281,1146.1 1848.89,706.629 c 28.78,-11.379 61.33,2.723 72.71,31.5 11.37,28.781 -2.73,61.332 -31.51,72.711 L 778.48,1250.31 c -28.777,11.38 -61.328,-2.73 -72.707,-31.51 -11.375,-28.77 2.731,-61.32 31.508,-72.7" /><path
         inkscape:connector-curvature="0"
         id="path54"
         style="fill:#56210b;fill-opacity:1;fill-rule:nonzero;stroke:none"
         d="M 1050.13,1455.65 2488.09,889.582 c 28.79,-11.332 61.32,2.82 72.66,31.613 11.33,28.793 -2.82,61.325 -31.61,72.66 L 1091.18,1559.92 c -28.8,11.33 -61.33,-2.82 -72.66,-31.61 -11.34,-28.79 2.82,-61.33 31.61,-72.66" /><path
         inkscape:connector-curvature="0"
         id="path56"
         style="fill:#56210b;fill-opacity:1;fill-rule:nonzero;stroke:none"
         d="M 320.324,909.82 1072.22,603.961 c 28.66,-11.66 61.35,2.117 73.01,30.789 11.66,28.66 -2.12,61.352 -30.79,73.012 L 362.547,1013.62 c -28.664,11.66 -61.352,-2.12 -73.012,-30.788 -11.66,-28.664 2.125,-61.352 30.789,-73.012" /></g><path
       inkscape:connector-curvature="0"
       id="path58"
       style="fill:#bd734c;fill-opacity:1;fill-rule:nonzero;stroke:none"
       d="m 228.24456,193.09291 39.121,-15.063 c 2.888,-1.112 6.13,0.327 7.242,3.215 1.112,2.888 -0.327,6.13 -3.215,7.242 l -39.121,15.063 c -2.888,1.113 -6.13,-0.327 -7.242,-3.215 -1.112,-2.888 0.327,-6.13 3.215,-7.242" /><path
       inkscape:connector-curvature="0"
       id="path60"
       style="fill:#bd734c;fill-opacity:1;fill-rule:nonzero;stroke:none"
       d="m 268.68956,215.21991 21.902,-8.037 c 2.905,-1.066 6.124,0.425 7.19,3.33 1.066,2.905 -0.425,6.124 -3.33,7.19 l -21.902,8.037 c -2.905,1.066 -6.124,-0.425 -7.19,-3.33 -1.066,-2.905 0.425,-6.124 3.33,-7.19" /><path
       inkscape:connector-curvature="0"
       id="path62"
       style="fill:#bd734c;fill-opacity:1;fill-rule:nonzero;stroke:none"
       d="m 184.14156,169.64591 30.672,-11.9632 c 2.883,-1.1242 6.132,0.3012 7.256,3.184 1.125,2.8832 -0.301,6.1317 -3.184,7.2563 l -30.672,11.9629 c -2.883,1.124 -6.131,-0.301 -7.256,-3.184 -1.124,-2.883 0.302,-6.132 3.184,-7.256" /><path
       inkscape:connector-curvature="0"
       id="path64"
       style="fill:#bd734c;fill-opacity:1;fill-rule:nonzero;stroke:none"
       d="m 118.46156,153.41711 24.215,-9.7633 c 2.87,-1.1578 6.134,0.2313 7.292,3.1012 1.157,2.8699 -0.232,6.1344 -3.102,7.2914 l -24.214,9.7637 c -2.87,1.1574 -6.135,-0.2313 -7.292,-3.1012 -1.157,-2.8699 0.231,-6.1344 3.101,-7.2918" /></g></svg>